<svg id="84aae51e-c0fe-44b8-83eb-3d350b00302d" data-name="Camada 1" xmlns="http://www.w3.org/2000/svg" width="614.04" height="322.42" viewBox="0 0 614.04 322.42"><title>LogoUnivesp</title><polygon points="353.15 83.31 332.52 214.24 317.95 214.23 296.82 83.31 283.13 83.31 310.83 239.11 338.74 239.11 366.44 83.31 353.15 83.31" fill="#d13239"/><polygon points="325.23 184.51 339.85 83.31 325.23 184.41 310.6 83.3 296.81 83.3 296.82 83.31 310.6 83.31 325.23 184.51" fill="#fff"/><polygon points="332.52 214.24 353.15 83.31 339.85 83.31 325.23 184.41 310.6 83.3 296.81 83.3 317.95 214.23 332.52 214.24" fill="#fff"/><path d="M98.47,83.64c-2.51,1.6-3.3,4-3.19,7L95,130.88c-.34,10.73,3.87,21.68,14.13,26.36,11.39,5.71,23.93-.12,32.7-7.19l.23-.8.57-58.31a6.41,6.41,0,0,0-3.3-6.28c-.68-.34-1.6-.34-1.71-1.14l.11-.23c5.35.68,10.82.23,16.18.23.23,0,.45,0,.45.23-.45.91-1.48.91-2.16,1.48-2.51,2.28-2.62,5.82-2.62,9.24l-.8,56.37c.23,3.08-.23,7.08,2.74,9,.8.57,1.59.57,2.39,1.14a.35.35,0,0,1-.46.34c-4.9-.23-9.91-.91-14.92-.23-.11-.12-.11-.23-.11-.46,2.73-1.71,3.42-4.91,3.42-8.1-.45-.46-.68.23-1.25.57-9.91,7.3-23.47,12-35.89,7.08-8.54-3-14.92-12.09-15.61-20.77-1-8.1-.34-25.56-.34-25.56.23-8,.46-16.32-.11-24.3-.46-2.62-3.3-4.79-5.7-5.59,0-.23.23-.34.34-.46,4.79,0,9.46.69,14.13-.23h1Zm78.16,72.23c.11,1.6,1.6,2.85,2.85,3.54.8.45,1.94.34,2.62,1l-.46.46a103.45,103.45,0,0,0-16.06.11c-.34-.91,2.05-1,2.85-1.59,2.28-1.14,3-3.42,3-5.59l.68-65.38a9.19,9.19,0,0,0-6.15-4.33c-.45-.23-.23-.46-.23-.69l.68-.23A51.86,51.86,0,0,0,181,82.73c.23.91-.68,1.37-.68,2.17a5.64,5.64,0,0,0,.91,4.45l48.08,56,.34-.23.23-51.69c-.23-3-.11-6-2.85-7.87-.8-.8-2.28-.57-3.08-1.48l.8-.34a78.06,78.06,0,0,0,15.49-.45l.23.23c.23.57-.68.8-.91.91a6.07,6.07,0,0,0-4,2.51c-1.82,5.25-.8,10-1.25,15.86v2.28l-.46,54.77c-.11.57.23,1.26-.23,1.48l-.34-.23-25.52-30.24C196.9,118.56,186.88,106,176.28,94h-.11c0,9.93-.91,52.15.46,61.84m89.21-70.4c-3.08,2.05-2.39,4.11-2.62,7.19,0,0-.23,59.79.68,64.7.34,1.82,2.28,2.74,3.76,3.65l-.57.46c-4.78-.91-10.37-.34-15.49-.23-.46-.91,1-.68,1.37-1.14a3.42,3.42,0,0,0,2.62-2.17l.68-3.31V92.08c-.23-2.17-.46-4.9-2.39-6.16l-.46-.69c-1-.8-2.62-.46-3.07-1.48l.34-.11A73.18,73.18,0,0,0,268,83.53c.46,0,.68-.23,1.14,0-.68,1.14-2.28,1.14-3.3,1.94m139.63,36.4a95.52,95.52,0,0,0-16.18.46l-.11.46c-.12,11.29-.45,23,.23,34.46l.45.23c7.75-.57,17.66.57,25.75-1,2.39-.57,4.55-3.08,5.58-5.25a.24.24,0,0,1,.46,0l.23.11a32.9,32.9,0,0,1-2.62,7.76,5.35,5.35,0,0,1-3.3,2.06c-13.33.11-24.95-.8-38.51,0a.85.85,0,0,1-.23-.69c1.37-.57,3.88-1.83,4.56-4.22l.46-3,.12-20.43V93.45c-.23-2.74,0-6.5-2.73-8.44-.46-.68-1.71-.45-1.71-1.6h.45c10,0,19.49-.11,29.62-.34.68.11,1.59.11,2,.57,1.37,1.82,1.59,3.88,1.83,6.16-.46.34-.69-.23-.91-.34-1.37-2.62-4.1-3.19-6.84-3.08l-14.58.34-.34.11c0,10.61-.34,21.11.11,31.49l.46.11c6.16-.23,12.42.23,18.34-.8A6.15,6.15,0,0,0,412,114c.12-.23.34-.23.68-.12a99.6,99.6,0,0,0-.23,11.64.35.35,0,0,1-.46,0s.91-3.08-6.49-3.65m64.26-35.71v.46a24.79,24.79,0,0,1-.23,8.22c-.12.34-.34.11-.46.11-1.93-4-6.38-8.33-10.93-8.79-6.27-1.48-13,.68-16.41,6.16a14.77,14.77,0,0,0,0,13.12c1.71,2.74,4.9,5.36,7.52,7.87,6.72,5.36,13.9,9.81,20.5,15.86,4.33,4.91,5.24,12.89,3.19,18.71-1.82,6-7.52,12-13.79,13.12-7.74,2.06-15.72-.34-23.47-.8-.23-4-.68-8-.91-12.21,0-.46.46-.46.8-.34.68,1.14.68,2.51,1.14,3.65,3.19,7.19,11,8.44,18.12,8,5.35-.46,10.94-3.76,12.87-9.24,2-4.91.57-10.84-2.62-14.72a47.36,47.36,0,0,0-8.88-7.87c-8-6.5-20.51-12.78-20.62-24.53a18.55,18.55,0,0,1,8.31-16.66c7.4-5,17.89-2.74,25.86-.11m57.53,5c4.21,5.71,4.44,14.72,1.48,20.88-2.85,6.5-9.8,10.61-16.52,11a38.33,38.33,0,0,1-9.57-.34.66.66,0,0,1-.23-.8l.68-.11c6.27.91,13.1.46,17.2-4.68,4.9-6,4.79-16.32,1.37-22.93a15.07,15.07,0,0,0-11.51-8.56,31.39,31.39,0,0,0-10.37.8l-.23.34-.34,16.43.12,51c.23,2.28,1.48,5,3.87,5.71.68.23,1.6.11,1.82.91-.79.8-2.28.23-3.3.35a45.71,45.71,0,0,0-14.24.11,1.75,1.75,0,0,1-.8-.11l.23-.57c1.71-.69,4.1-1.26,5.24-3.31l.34-2.62.35-32.86-.23-30.7a8.51,8.51,0,0,0-4.45-6.73c-.23-.34,0-.68.34-.57,13.1.69,30-4.91,38.73,7.42" fill="#fff"/><polygon points="310.59 83.31 339.85 83.31 325.23 184.41 310.61 83.3 310.59 83.31" fill="#1d1d1b"/></svg>